<svg width="120" height="24" viewBox="0 0 120 24" fill="none" xmlns="http://www.w3.org/2000/svg">
<path d="M5.25026 19.8649C4.6976 19.8103 4.11731 19.6737 3.48175 19.5097C2.76329 19.3185 2.15537 19.0725 1.68561 18.772C1.21585 18.4714 0.801355 18.0342 0.497393 17.4877C0.165798 16.9685 0 16.3128 0 15.575V8.93514C0 5.90212 2.3488 4.37195 7.07403 4.37195C8.28988 4.37195 9.89259 4.5359 11.9374 4.89111V7.62356C10.1137 7.18637 8.51094 6.96778 7.1293 6.96778C6.54901 6.96778 6.10688 6.9951 5.77528 7.02243C5.44369 7.04975 5.11209 7.13172 4.7805 7.26835C4.03441 7.51427 3.67518 8.06076 3.67518 8.90782V15.3018C3.67518 16.668 4.9463 17.3511 7.46089 17.3511C8.53858 17.3511 10.0584 17.1325 12.0203 16.668V19.4277C10.3347 19.7556 8.70438 19.9469 7.07403 19.9469C6.38321 19.9469 5.77528 19.9196 5.25026 19.8649Z" fill="#093845"/>
<path d="M17.9615 19.8649C17.5193 19.8103 17.0219 19.7283 16.4969 19.5917C15.9443 19.4278 15.4745 19.2092 15.1429 18.9359C14.7837 18.6353 14.5073 18.2528 14.2586 17.7063C14.0099 17.1871 13.8994 16.586 13.8994 15.8482V12.5147C13.8994 11.7769 14.0099 11.1211 14.2586 10.5473C14.5073 10.0008 14.8113 9.56361 15.1705 9.23572C15.5021 8.96247 15.9443 8.74388 16.4693 8.57993C17.0219 8.38866 17.547 8.27936 18.072 8.25204C18.6799 8.22471 19.2049 8.19739 19.7023 8.19739C20.4208 8.19739 21.0011 8.22471 21.4432 8.25204C21.8853 8.27936 22.3551 8.38866 22.8801 8.55261C23.4328 8.71655 23.9025 8.96247 24.2618 9.26304C24.621 9.56361 24.925 9.97348 25.1737 10.52C25.4224 11.0665 25.5329 11.7496 25.5329 12.5147V15.8482C25.5329 16.5587 25.4224 17.1598 25.2013 17.679C24.9802 18.1982 24.6763 18.608 24.317 18.9086C24.0131 19.1818 23.5709 19.3731 23.0459 19.5371C22.4933 19.701 21.9682 19.8103 21.4432 19.8649C20.9734 19.9196 20.4208 19.9469 19.7576 19.9469C19.0115 19.9469 18.4312 19.9196 17.9615 19.8649ZM21.1669 17.679C21.4985 17.5697 21.7195 17.4057 21.8577 17.2145C21.9959 16.9959 22.0511 16.668 22.0511 16.2581V11.9955C22.0511 11.367 21.8853 10.9298 21.5537 10.6839C21.2221 10.438 20.6142 10.3014 19.7023 10.3014C18.7904 10.3014 18.1825 10.438 17.8509 10.6839C17.5193 10.9298 17.3535 11.367 17.3535 11.9955V16.2581C17.3535 16.668 17.4088 16.9959 17.547 17.2145C17.6851 17.4331 17.9062 17.597 18.2378 17.679C18.5694 17.7883 19.0668 17.8429 19.7023 17.8429C20.3379 17.8156 20.8353 17.7883 21.1669 17.679Z" fill="#093845"/>
<path d="M29.567 19.6463C28.9315 19.4551 28.4894 19.0725 28.213 18.5534C27.9643 18.0069 27.8262 17.1598 27.8262 16.0122V11.6129C27.8262 10.3833 28.1854 9.48162 28.9039 8.98978C29.6223 8.47061 30.7829 8.22469 32.3856 8.22469C33.1317 8.22469 33.7396 8.27934 34.1541 8.36131C34.5962 8.44329 34.9278 8.60723 35.2042 8.7985C35.4805 9.0171 35.7568 9.31767 36.0332 9.72754V3.4429H39.4596V19.7283H36.1437V18.4441C35.8674 18.8812 35.6187 19.2091 35.37 19.4004C35.1489 19.5917 34.8173 19.7283 34.4028 19.8103C33.9883 19.9196 33.3528 19.9742 32.5238 19.9742C31.1974 19.9469 30.2026 19.8376 29.567 19.6463ZM35.1213 17.7063C35.4805 17.6243 35.7292 17.4877 35.8397 17.2691C35.9779 17.0505 36.0332 16.7499 36.0332 16.3127V11.8042C36.0332 11.4217 35.9779 11.1211 35.8397 10.9025C35.7016 10.6839 35.4805 10.5473 35.1213 10.438C34.7897 10.356 34.2646 10.3014 33.6015 10.3014C32.883 10.3014 32.358 10.356 32.054 10.438C31.7501 10.5199 31.529 10.6839 31.4185 10.8752C31.3079 11.0938 31.2527 11.4217 31.2527 11.9135V16.2308C31.2527 16.668 31.3079 16.9959 31.4185 17.2145C31.529 17.433 31.7224 17.597 32.0264 17.679C32.3303 17.7609 32.8001 17.8156 33.408 17.8156C34.2094 17.8156 34.762 17.7883 35.1213 17.7063Z" fill="#093845"/>
<path d="M42.1677 16.2854V12.2414C42.1677 10.8205 42.6375 9.80952 43.5494 9.18106C44.4613 8.55259 45.8705 8.2247 47.8048 8.2247C49.601 8.2247 50.9274 8.52527 51.784 9.15373C52.613 9.75487 53.0551 10.7932 53.0551 12.2687V15.0285H45.6495V16.0395C45.6495 16.6953 45.8982 17.1598 46.3679 17.4331C46.8377 17.7063 47.6943 17.8429 48.9102 17.8429C50.0431 17.8429 51.3142 17.679 52.7235 17.3511V19.5097C51.3142 19.8103 49.822 19.9469 48.247 19.9469C44.1849 19.9469 42.1677 18.7173 42.1677 16.2854ZM49.7391 13.0611V11.4217C49.7391 11.0391 49.5733 10.7659 49.2694 10.5746C48.9654 10.3833 48.4404 10.3014 47.7219 10.3014C46.893 10.3014 46.3403 10.3833 46.064 10.5746C45.76 10.7659 45.6218 11.0664 45.6218 11.4217V13.0611H49.7391Z" fill="#093845"/>
<path d="M63.0032 4.80911H69.1929C70.6575 4.80911 71.7904 4.91841 72.5642 5.13701C73.3655 5.3556 73.9182 5.6835 74.2498 6.14801C74.5814 6.61253 74.7472 7.24099 74.7472 8.06073V9.9188C74.7472 10.3287 74.5814 10.7385 74.2498 11.0937C73.9182 11.4763 73.5037 11.7222 73.0616 11.8588V11.9681C73.6695 12.0228 74.1945 12.2687 74.6919 12.7332C75.1893 13.1704 75.438 13.6623 75.438 14.2087V16.5313C75.438 17.7609 74.9406 18.6353 73.9458 19.1272C72.951 19.6463 71.4312 19.8922 69.3587 19.8922H63.0032V4.80911ZM69.1929 10.9571C69.7732 10.9571 70.2154 10.9025 70.4917 10.8205C70.768 10.7385 70.9615 10.5746 71.072 10.356C71.1825 10.1374 71.2378 9.83682 71.2378 9.42695V8.68919C71.2378 8.33397 71.1825 8.06073 71.0996 7.89678C71.0167 7.70551 70.8233 7.59621 70.5193 7.51424C70.2154 7.43227 69.7732 7.40494 69.1377 7.40494H66.6784V10.9571H69.1929ZM69.3035 17.3237C70.1877 17.3237 70.8233 17.2144 71.2102 17.0232C71.597 16.8319 71.7628 16.504 71.7628 16.0395V14.8372C71.7628 14.2907 71.6246 13.8808 71.3207 13.6623C71.0167 13.4163 70.5193 13.307 69.7732 13.307H66.6784V17.3237H69.3035Z" fill="#1DD1A1"/>
<path d="M81.545 20.0835C81.1028 20.0289 80.6054 19.9469 80.0804 19.8103C79.5277 19.6463 79.058 19.4277 78.7264 19.1545C78.3948 18.8539 78.0908 18.4714 77.8421 17.9249C77.5934 17.4057 77.4829 16.8046 77.4829 16.0668V12.7059C77.4829 11.9681 77.5934 11.3123 77.8421 10.7385C78.0908 10.192 78.3948 9.75484 78.754 9.42694C79.0856 9.1537 79.5278 8.9351 80.0528 8.77115C80.6054 8.57988 81.1305 8.47058 81.6555 8.44326C82.2634 8.41594 82.7884 8.38861 83.2858 8.38861C84.0043 8.38861 84.5846 8.41594 85.0267 8.44326C85.4688 8.47058 85.9386 8.57988 86.4636 8.74383C87.0163 8.90778 87.486 9.1537 87.8453 9.45427C88.2045 9.75484 88.5085 10.1647 88.7572 10.7112C89.0059 11.2577 89.1164 11.9408 89.1164 12.7059V16.0395C89.1164 16.7499 89.0058 17.3511 88.7848 17.8702C88.5637 18.3894 88.2598 18.7992 87.9005 19.0998C87.5966 19.3731 87.1544 19.5643 86.6294 19.7283C86.0768 19.8922 85.5517 20.0015 85.0267 20.0562C84.5569 20.1108 84.0043 20.1381 83.3411 20.1381C82.5674 20.1381 81.9871 20.1108 81.545 20.0835ZM84.7504 17.8702C85.082 17.7609 85.303 17.597 85.4412 17.4057C85.5794 17.1871 85.6346 16.8592 85.6346 16.4493V12.1867C85.6346 11.5583 85.4688 11.1211 85.1372 10.8751C84.8056 10.6292 84.1977 10.4926 83.2858 10.4926C82.3739 10.4926 81.766 10.6292 81.4344 10.8751C81.1028 11.1211 80.937 11.5583 80.937 12.1867V16.4493C80.937 16.8592 80.9923 17.1871 81.1305 17.4057C81.2686 17.6243 81.4897 17.7882 81.8213 17.8702C82.1529 17.9795 82.6503 18.0342 83.2858 18.0342C83.9214 18.0342 84.4188 17.9795 84.7504 17.8702Z" fill="#1DD1A1"/>
<path d="M94.9469 14.1268L90.7191 8.63455H94.6982L96.9365 11.8588L99.2024 8.63455H103.182L98.926 14.1268L103.43 19.8922H99.4511L96.9641 16.3401L94.5048 19.8922H90.5256L94.9469 14.1268Z" fill="#1DD1A1"/>
<path d="M119.955 23.9909H58.8582V0H119.955V23.9909ZM60.7372 22.1329H118.076V1.85807H60.7372V22.1329Z" fill="#093845"/>
<path d="M115.976 17.7063H106.221V19.9196H115.976V17.7063Z" fill="#093845"/>
</svg>
